<svg width="19" height="28" viewBox="0 0 19 28" fill="none" xmlns="http://www.w3.org/2000/svg">
<path d="M0.856261 14.86L13.7504 27.6456C13.9803 27.872 14.2911 27.999 14.6152 27.999C14.9392 27.999 15.2501 27.872 15.48 27.6456L18.1417 25.0063C18.3577 24.7913 18.4846 24.5036 18.497 24.2003C18.5095 23.897 18.4067 23.6001 18.209 23.3683L9.32288 14.557C9.24898 14.4844 9.19034 14.3981 9.15031 14.3029C9.11027 14.2077 9.08962 14.1056 9.08962 14.0024C9.08962 13.8993 9.11027 13.7972 9.15031 13.702C9.19034 13.6068 9.24898 13.5205 9.32288 13.4479L18.209 4.63659C18.4067 4.40483 18.5095 4.10791 18.497 3.80459C18.4846 3.50127 18.3577 3.21364 18.1417 2.9986L15.48 0.359316C15.2501 0.132925 14.9392 0.0058686 14.6152 0.00586857C14.2911 0.00586854 13.9803 0.132925 13.7504 0.359315L0.856262 13.1449C0.741968 13.2571 0.651235 13.3907 0.589315 13.5379C0.527395 13.6851 0.495508 13.843 0.495508 14.0024C0.495507 14.1619 0.527395 14.3198 0.589315 14.467C0.651235 14.6142 0.741967 14.7478 0.856261 14.86Z" fill="#0FBF4A"/>
</svg>
