<svg width="25" height="18" viewBox="0 0 25 18" fill="none" xmlns="http://www.w3.org/2000/svg">
<path d="M13.2219 3.02943L17.221 7.02063H1.28126C1.07406 7.02063 0.875325 7.10271 0.728811 7.24882C0.582296 7.39492 0.500007 7.59309 0.500007 7.79972V10.1997C0.499571 10.3023 0.519455 10.404 0.558521 10.4989C0.597588 10.5938 0.655049 10.6801 0.727639 10.7528C0.800229 10.8255 0.886494 10.8831 0.981497 10.9225C1.0765 10.9619 1.17839 10.9821 1.28126 10.9821H17.221L13.2219 14.97C13.1488 15.0424 13.0907 15.1286 13.0511 15.2235C13.0115 15.3184 12.991 15.4202 12.991 15.523C12.991 15.6258 13.0115 15.7276 13.0511 15.8225C13.0907 15.9174 13.1488 16.0035 13.2219 16.0759L14.9235 17.7728C15.0705 17.9183 15.2692 18 15.4764 18C15.6835 18 15.8822 17.9183 16.0292 17.7728L24.2721 9.55268C24.4181 9.40611 24.5 9.20793 24.5 9.00137C24.5 8.79481 24.4181 8.59663 24.2721 8.45006L16.0292 0.229978C15.9568 0.157114 15.8707 0.099272 15.7758 0.0597977C15.6809 0.0203233 15.5792 0 15.4764 0C15.3735 0 15.2717 0.0203233 15.1768 0.0597977C15.0819 0.099272 14.9958 0.157114 14.9235 0.229978L13.2219 1.92681C13.1489 1.99895 13.0909 2.08482 13.0513 2.17944C13.0117 2.27407 12.9913 2.37559 12.9913 2.47812C12.9913 2.58065 13.0117 2.68217 13.0513 2.7768C13.0909 2.87143 13.1489 2.95729 13.2219 3.02943Z" fill="#0FBF4A"/>
</svg>
