<svg width="19" height="28" viewBox="0 0 19 28" fill="none" xmlns="http://www.w3.org/2000/svg">
<path d="M18.1418 13.14L5.24764 0.354424C5.01773 0.128033 4.70691 0.000976563 4.38289 0.000976562C4.05888 0.000976562 3.74799 0.128033 3.51808 0.354424L0.856395 2.99371C0.640303 3.20875 0.51348 3.49638 0.501014 3.7997C0.488548 4.10302 0.591345 4.39993 0.789074 4.6317L9.67517 13.443C9.74907 13.5156 9.8077 13.6019 9.84774 13.6971C9.88777 13.7923 9.90842 13.8944 9.90842 13.9976C9.90842 14.1007 9.88777 14.2028 9.84774 14.298C9.8077 14.3932 9.74907 14.4795 9.67517 14.5521L0.789074 23.3634C0.591345 23.5952 0.488548 23.8921 0.501014 24.1954C0.51348 24.4987 0.640303 24.7864 0.856395 25.0014L3.51808 27.6407C3.74799 27.8671 4.05888 27.9941 4.38289 27.9941C4.70691 27.9941 5.01773 27.8671 5.24764 27.6407L18.1418 14.8551C18.2561 14.7429 18.3468 14.6093 18.4087 14.4621C18.4707 14.3149 18.5025 14.157 18.5025 13.9976C18.5025 13.8381 18.4707 13.6802 18.4087 13.533C18.3468 13.3858 18.2561 13.2522 18.1418 13.14Z" fill="#0FBF4A"/>
</svg>
