<svg width="25" height="35" viewBox="0 0 25 35" fill="none" xmlns="http://www.w3.org/2000/svg">
<path d="M18.9706 12.7219L14.9794 16.721L14.9794 0.781261C14.9794 0.574058 14.8973 0.375325 14.7512 0.228811C14.6051 0.0822959 14.4069 6.68328e-06 14.2003 6.67424e-06L11.8003 6.56934e-06C11.6977 -0.000429349 11.596 0.0194541 11.5011 0.0585208C11.4062 0.0975876 11.3199 0.155048 11.2472 0.227638C11.1745 0.300229 11.1169 0.386494 11.0775 0.481497C11.0381 0.5765 11.0179 0.678386 11.0179 0.781261L11.0179 16.721L7.02999 12.7219C6.95757 12.6488 6.87142 12.5907 6.77652 12.5511C6.68162 12.5115 6.57983 12.491 6.47703 12.491C6.37423 12.491 6.27244 12.5115 6.17754 12.5511C6.08264 12.5907 5.99649 12.6488 5.92407 12.7219L4.22724 14.4235C4.08168 14.5705 4 14.7692 4 14.9764C4 15.1835 4.08168 15.3822 4.22724 15.5292L12.4473 23.7721C12.5939 23.9181 12.7921 24 12.9986 24C13.2052 24 13.4034 23.9181 13.5499 23.7721L21.77 15.5292C21.8429 15.4568 21.9007 15.3707 21.9402 15.2758C21.9797 15.1809 22 15.0792 22 14.9764C22 14.8735 21.9797 14.7717 21.9402 14.6768C21.9007 14.5819 21.8429 14.4958 21.77 14.4235L20.0732 12.7219C20.001 12.6489 19.9152 12.5909 19.8206 12.5513C19.7259 12.5117 19.6244 12.4913 19.5219 12.4913C19.4193 12.4913 19.3178 12.5117 19.2232 12.5513C19.1286 12.5909 19.0427 12.6489 18.9706 12.7219Z" fill="#0FBF4A"/>
<path d="M0 31.7C0 31.3134 0.313401 31 0.7 31L24.3 31C24.6866 31 25 31.3134 25 31.7V34.3C25 34.6866 24.6866 35 24.3 35L0.700001 35C0.313402 35 0 34.6866 0 34.3L0 31.7Z" fill="#0FBF4A"/>
</svg>
