<svg width="19" height="12" viewBox="0 0 19 12" fill="none" xmlns="http://www.w3.org/2000/svg">
<path d="M10.2406 11.7622L18.7644 3.16607C18.9153 3.0128 19 2.80558 19 2.58957C19 2.37356 18.9153 2.1663 18.7644 2.01303L17.0048 0.238573C16.8615 0.094512 16.6697 0.00996337 16.4675 0.00165272C16.2653 -0.00665792 16.0674 0.0618731 15.9129 0.193692L10.0387 6.11776C9.99027 6.16702 9.93269 6.20611 9.86923 6.2328C9.80578 6.25949 9.7377 6.27326 9.66895 6.27326C9.6002 6.27326 9.53212 6.25949 9.46866 6.2328C9.40521 6.20611 9.34763 6.16702 9.29924 6.11775L3.42505 0.193692C3.27054 0.0618725 3.07259 -0.0066585 2.87038 0.00165213C2.66817 0.00996276 2.47641 0.0945114 2.33305 0.238572L0.57353 2.01303C0.422602 2.1663 0.337898 2.37356 0.337898 2.58957C0.337898 2.80558 0.422602 3.0128 0.57353 3.16607L9.09728 11.7622C9.17208 11.8384 9.26112 11.8989 9.35924 11.9401C9.45736 11.9814 9.56263 12.0027 9.66895 12.0027C9.77527 12.0027 9.88053 11.9814 9.97866 11.9401C10.0768 11.8989 10.1658 11.8384 10.2406 11.7622Z" fill="#0FBF4A"/>
</svg>
